<?xml version="1.0" standalone="no"?><!DOCTYPE svg PUBLIC "-//W3C//DTD SVG 1.1//EN" "http://www.w3.org/Graphics/SVG/1.1/DTD/svg11.dtd"><svg t="1719469192194" class="icon" viewBox="0 0 1024 1024" version="1.1" xmlns="http://www.w3.org/2000/svg" p-id="7820" xmlns:xlink="http://www.w3.org/1999/xlink" width="200" height="200"><path d="M6.93589333 516.66033778a505.06410667 505.06410667 0 1 0 1010.12821334 0 505.06410667 505.06410667 0 1 0-1010.12821334 0Z" fill="#FFFFFF" p-id="7821"></path><path d="M606.95438222 220.72888889c-1.74762667-1.74762667-3.49525333-5.24288-5.24288-9.32067556 1.74762667 2.33016889 3.49525333 5.82542222 5.24288 9.32067556zM396.65664 153.73653333c-18.05880889-3.49525333-32.62236445-6.99050667-50.68117333-5.24288-37.86524445 3.49525333-58.25422222 25.63185778-68.73998222 61.74947556-5.24288 18.05880889-6.99050667 34.36999111-9.32067556 52.4288 0 6.99050667 0 18.05880889-1.74762667 23.88423111-3.49525333 5.24288-9.32067555 6.99050667-11.06830222 16.31118222-3.49525333 21.55406222 9.32067555 18.05880889 23.88423111 16.31118223 21.55406222-3.49525333 41.94304-5.24288 63.49710222-5.24288 18.05880889-1.74762667 34.36999111 1.74762667 48.93354667 11.06830222 5.24288 3.49525333 12.81592889 9.32067555 21.55406222 5.24288 9.32067555-3.49525333 18.05880889-5.24288 25.63185778-3.49525334 11.06830222 1.74762667 25.63185778-18.05880889 36.11761778-21.55406222 18.05880889-5.24288 34.36999111-6.99050667 52.4288-9.32067556 19.80643555-1.74762667 37.86524445-5.24288 58.25422222-3.49525333 6.99050667 0 19.80643555 1.74762667 27.37948445 0 3.49525333-1.74762667 0-12.81592889 0-18.05880889-3.49525333-16.31118222-16.31118222-25.63185778-23.88423112-37.86524444-5.24288-12.81592889-11.06830222-40.19541333-9.32067555-54.17642667-9.32067555-32.62236445-118.25607111-92.62421333-165.44199111-41.94304 5.82542222-6.40796445-8.73813333 11.65084445-17.47626667 13.39847111z" fill="#FFF1E4" p-id="7822"></path><path d="M618.02268445 163.05720889c-29.12711111-90.87658667-115.92590222-139.81013333-208.55011556-141.55776-23.88423111 1.74762667-45.43829333 5.24288-66.99235556 11.06830222-18.05880889 3.49525333-52.4288 12.81592889-60.00184888 30.87473778 3.49525333 1.74762667 21.55406222-1.74762667 21.55406222 3.49525333 0 6.99050667-21.55406222 12.81592889-27.37948445 18.05880889-11.06830222 6.99050667-21.55406222 18.05880889-30.87473777 27.37948444-9.32067555 9.32067555-1.74762667 9.32067555 6.99050666 6.99050667 27.37948445-9.32067555 54.17642667-18.05880889 81.55591111-16.31118222 29.12711111 1.74762667 52.4288 12.81592889 78.06065778 27.37948445 48.93354667-50.68117333 154.37368889 11.06830222 165.44199111 41.94304 9.32067555 5.24288 16.31118222 23.88423111 21.55406222 32.62236444 9.32067555 12.81592889 16.31118222 34.36999111 27.37948445 47.18592 14.56355555-18.64135111-1.74762667-67.57489778-8.73813333-89.12896-5.82542222-14.56355555 8.73813333 25.04931555 0 0zM189.27160889 271.99260445c0 6.99050667 0 16.31118222 1.74762666 23.8842311 0 16.31118222 3.49525333 30.87473778 9.32067556 47.18592 1.74762667 3.49525333 3.49525333 5.24288 6.99050667 3.49525334 1.74762667 0 1.74762667-1.74762667 3.49525333-1.74762667 5.24288-1.74762667 6.99050667-5.24288 5.24288-11.06830222 0-6.99050667-1.74762667-16.31118222-1.74762666-23.88423111 0-21.55406222 1.74762667-40.19541333 5.24288-61.74947556 1.74762667-6.99050667 3.49525333-12.81592889 9.32067555-19.80643555 5.24288-5.24288 11.06830222-11.06830222 12.81592889-19.80643556 3.49525333-6.99050667 6.99050667-16.31118222 11.06830222-23.88423111 6.99050667-11.06830222 16.31118222-23.88423111 27.37948444-30.87473778 3.49525333-1.74762667 6.99050667-3.49525333 11.06830223-6.99050666 1.74762667 0 1.74762667-1.74762667 1.74762667-3.49525334-1.74762667 0-3.49525333-1.74762667-3.49525334-1.74762666-5.24288 0-11.06830222 1.74762667-16.31118222 3.49525333-12.81592889 5.24288-25.63185778 12.81592889-36.11761778 21.55406222-11.06830222 9.32067555-23.88423111 19.80643555-34.36999111 27.37948445-6.99050667 5.24288-18.05880889 9.32067555-29.12711111 9.32067555-5.24288 0-6.99050667 5.24288-3.49525334 9.32067556 1.74762667 3.49525333 3.49525333 5.24288 5.24288 9.32067555 6.99050667 9.32067555 11.06830222 19.80643555 11.06830223 30.87473778 2.91271111 4.66033778 2.91271111 11.65084445 2.91271111 19.22389334z" fill="#FFFFFF" p-id="7823"></path><path d="M307.52768 529.47626667c0 3.49525333 0 9.32067555 1.74762667 12.81592888 3.49525333 6.99050667 6.99050667 18.05880889 11.06830222 25.63185778 9.32067555 18.05880889 21.55406222 32.62236445 37.86524444 45.43829334 9.32067555 5.24288 21.55406222 11.06830222 34.36999112 9.32067555 5.24288 0 6.99050667-3.49525333 5.24288-9.32067555-1.74762667-1.74762667-1.74762667-3.49525333-3.49525334-6.99050667-3.49525333-9.32067555-6.99050667-19.80643555-12.81592889-29.12711111 0-1.74762667-1.74762667-1.74762667-3.49525333-3.49525334-1.74762667 1.74762667-3.49525333 1.74762667-3.49525334 3.49525334-1.74762667 3.49525333-1.74762667 6.99050667-3.49525333 9.32067556-1.74762667 3.49525333-3.49525333 5.24288-6.99050667 1.74762666-3.49525333-3.49525333-5.24288-5.24288-6.99050666-9.32067556-9.32067555-16.31118222-16.31118222-32.62236445-19.80643556-50.68117333-1.74762667-6.99050667-3.49525333-14.56355555-3.49525333-19.80643555 0-3.49525333-3.49525333-5.24288-6.99050667-5.24288-3.49525333 1.74762667-6.99050667 1.74762667-9.32067555 3.49525333-6.40796445 4.66033778-8.15559111 13.39847111-9.90321778 22.71914667z" fill="#F4D5B9" p-id="7824"></path><path d="M503.26186667 518.40796445s0-1.74762667 0 0c-1.74762667-1.74762667-1.74762667-1.74762667-3.49525334-1.74762667-11.06830222 0-23.88423111 1.74762667-36.11761778 1.74762667-11.06830222 1.74762667-23.88423111 3.49525333-36.11761777 6.99050666-1.74762667 0-1.74762667 1.74762667-3.49525333 1.74762667 0 1.74762667 1.74762667 1.74762667 1.74762666 3.49525333 5.24288 3.49525333 11.06830222 3.49525333 18.05880889 3.49525334 5.24288-1.74762667 11.06830222-1.74762667 18.05880889-3.49525334 11.06830222-1.74762667 23.88423111-3.49525333 32.62236444-9.32067556 1.74762667-1.16508445 6.99050667-1.16508445 8.73813334-2.9127111z" fill="" p-id="7825"></path><path d="M343.64529778 345.97546667c1.74762667 0 5.24288-1.74762667 6.99050667-1.74762667 0-3.49525333-1.74762667-5.24288-5.24288-6.99050667-6.99050667-3.49525333-16.31118222-3.49525333-23.88423112 1.74762667-9.32067555 5.24288-19.80643555 12.81592889-29.12711111 21.55406222l-1.74762667 1.74762667c-1.74762667 1.74762667-1.74762667 3.49525333 1.74762667 3.49525333 1.74762667 0 5.24288 0 6.99050667-1.74762667 5.24288-1.74762667 9.32067555-5.24288 16.31118222-6.99050666 8.15559111-6.99050667 19.22389333-12.81592889 27.96202667-11.06830222z" fill="#F9D2BC" p-id="7826"></path><path d="M556.27320889 335.48970667s0-1.74762667 0 0c-1.74762667-3.49525333-5.24288-3.49525333-6.99050667-5.24288-6.99050667-3.49525333-12.81592889-9.32067555-21.55406222-12.81592889-12.81592889-5.24288-23.88423111 0-30.87473778 9.32067555v3.49525334h3.49525333c3.49525333 0 5.24288-1.74762667 9.32067556-3.49525334 6.99050667-1.74762667 18.05880889-1.74762667 25.63185778 3.49525334 5.24288 3.49525333 11.06830222 6.99050667 19.80643556 6.99050666-2.91271111 0-0.58254222-1.74762667 1.16508444-1.74762666z" fill="#F3D5BC" p-id="7827"></path><path d="M207.91296 368.11207111c1.74762667 3.49525333 3.49525333 9.32067555 5.24288 12.81592889 3.49525333 6.99050667 6.99050667 12.81592889 12.81592889 21.55406222 1.74762667 1.74762667 3.49525333 3.49525333 5.24288 1.74762667 1.74762667-1.74762667 1.74762667-3.49525333 1.74762666-5.24288-1.74762667-3.49525333-1.74762667-5.24288-3.49525333-9.32067556-1.74762667-6.99050667-3.49525333-16.31118222-5.24288-25.63185778 0-3.49525333-1.74762667-3.49525333-5.24288-3.49525333-1.74762667 0-3.49525333 1.74762667-5.24288 3.49525333-2.33016889 0.58254222-2.33016889 2.33016889-5.82542222 4.07779556z" fill="#FFFFFF" p-id="7828"></path><path d="M262.08938667 357.04376889c0 3.49525333 1.74762667 5.24288 5.24288 5.24288 1.74762667 0 3.49525333-1.74762667 3.49525333-1.74762667 6.99050667-5.24288 12.81592889-11.06830222 21.55406222-18.05880889 1.74762667-1.74762667 1.74762667-3.49525333 1.74762667-3.49525333-1.74762667 0-3.49525333-1.74762667-5.24288-1.74762667-5.24288 1.74762667-11.06830222 1.74762667-16.31118222 3.49525334-3.49525333 0-10.48576 9.32067555-10.48576 16.31118222z" fill="#F9D2BC" p-id="7829"></path><path d="M548.70016 302.86734222c-3.49525333 0-6.99050667 0-9.32067555 1.74762667-1.74762667 0-1.74762667 1.74762667-1.74762667 1.74762666l1.74762667 1.74762667c3.49525333 1.74762667 6.99050667 3.49525333 11.06830222 5.24288 3.49525333 1.74762667 6.99050667 3.49525333 11.06830222 5.24288 3.49525333 1.74762667 5.24288 0 5.24288-5.24288 0-3.49525333-1.74762667-5.24288-3.49525334-9.32067555-3.49525333-1.16508445-11.06830222-1.16508445-14.56355555-1.16508445z" fill="#F3D5BC" p-id="7830"></path><path d="M491.02848 814.33941333c-1.74762667 1.74762667-1.74762667 3.49525333-1.74762667 5.24288-3.49525333 6.99050667-5.24288 16.31118222-9.32067555 21.55406222 0 0-1.74762667 1.74762667 0 1.74762667l1.74762667 1.74762667c3.49525333 0 6.99050667 0 11.06830222-1.74762667 3.49525333 0 5.24288-1.74762667 5.24288-5.24288-3.49525333-5.24288-3.49525333-12.81592889-5.24288-19.80643555 0-1.74762667-1.74762667-1.74762667-1.74762667-3.49525334z" fill="" p-id="7831"></path><path d="M232.96227555 351.80088889c5.24288 0 9.32067555-1.74762667 12.8159289-1.74762667 1.74762667 0 1.74762667-1.74762667 1.74762666-3.49525333s0-3.49525333-1.74762666-5.24288c0-1.74762667-1.74762667-3.49525333-3.49525334-1.74762667-3.49525333 0-6.99050667 1.74762667-11.06830222 1.74762667-1.74762667 0-1.74762667 1.74762667-1.74762667 3.49525333s0 3.49525333 1.74762667 5.24288c0 1.74762667 1.74762667 1.74762667 1.74762666 1.74762667zM579.57489778 306.36259555h11.06830222c3.49525333 0 3.49525333-1.74762667 3.49525333-6.99050666 0-3.49525333-1.74762667-3.49525333-5.24288-3.49525334-3.49525333 0-6.99050667 0-11.06830222 1.74762667-1.74762667 0-1.74762667 0-1.74762666 1.74762667v6.99050666h3.49525333zM503.26186667 518.40796445c-1.74762667 1.74762667-5.24288 1.74762667-6.99050667 3.49525333-11.06830222 3.49525333-21.55406222 6.99050667-32.62236445 9.32067555-5.24288 0-11.06830222 1.74762667-18.05880888 3.49525334-5.24288 1.74762667-11.06830222 0-18.05880889-3.49525334-1.74762667 0-1.74762667-1.74762667-1.74762667-3.49525333 1.74762667 0 1.74762667-1.74762667 3.49525334-1.74762667 11.06830222-1.74762667 23.88423111-5.24288 36.11761777-6.99050666 11.06830222-1.74762667 23.88423111-1.74762667 36.11761778-1.74762667 0-0.58254222 0-0.58254222 1.74762667 1.16508445 0-1.74762667 0 0 0 0zM491.02848 814.33941333l1.74762667 1.74762667c1.74762667 6.99050667 3.49525333 12.81592889 3.49525333 21.55406222 0 3.49525333 0 5.24288-5.24288 5.24288-3.49525333 0-6.99050667 1.74762667-11.06830222 1.74762667 0 0-1.74762667 0-1.74762667-1.74762667v-1.74762667c3.49525333-6.99050667 5.24288-16.31118222 9.32067556-21.55406222 1.16508445 0.58254222 1.16508445-1.74762667 3.49525333-5.24288z" fill="#FFFFFF" p-id="7832"></path><path d="M382.09308445 436.85205333c0 6.99050667 3.49525333 12.81592889 9.32067555 18.05880889 1.74762667 1.74762667 5.24288 1.74762667 6.99050667 0 1.74762667-1.74762667 1.74762667-3.49525333 0-5.24288-3.49525333-5.24288-3.49525333-11.06830222-1.74762667-19.80643555 0-1.74762667 0-3.49525333-1.74762667-3.49525334-3.49525333-1.74762667-6.99050667 0-9.32067555 3.49525334 0 0 0 1.74762667-3.49525333 6.99050666z" fill="#F5D5BA" p-id="7833"></path><path d="M933.76056889 640.15928889c-50.68117333-11.06830222-121.75132445-19.80643555-198.06435556-25.63185778-12.81592889-11.06830222-45.43829333-21.55406222-79.80828444-30.87473778-11.06830222-16.31118222-21.55406222-27.37948445-29.12711111-29.12711111 3.49525333-29.12711111 5.24288-65.24472889 6.99050667-68.73998222 3.49525333-5.24288 11.06830222-5.24288 16.31118222-19.80643555 0 0 0-11.06830222-1.74762667-27.37948445 16.31118222-52.4288 48.93354667-107.18776889 5.24288-156.12131555 6.99050667-37.86524445 12.81592889-79.80828445-5.24288-89.12896-30.87473778-118.25607111-96.11946667-161.36419555-174.18012445-181.75317334h3.49525334c-3.49525333 0-5.24288 0-9.32067556-1.74762666-18.05880889-3.49525333-32.62236445-5.24288-50.68117333-6.99050667-25.63185778-1.74762667-48.93354667 0-74.56540445 6.99050667-16.31118222 3.49525333-30.87473778 9.32067555-47.18592 18.05880888-16.31118222 6.99050667-30.87473778 18.05880889-47.18592 25.63185778-12.81592889 5.24288-27.37948445 12.81592889-43.69066666 18.05880889-5.24288 1.74762667-12.81592889 3.49525333-19.80643556 6.99050667-5.24288 1.74762667-9.32067555 5.24288-5.24288 12.81592888 1.74762667 3.49525333 1.74762667 5.24288 3.49525334 9.32067556 1.74762667 6.99050667 0 16.31118222-3.49525334 23.88423111-3.49525333 6.99050667-9.32067555 18.05880889-16.31118222 23.88423111-9.32067555 11.06830222-19.80643555 21.55406222-30.87473778 29.12711112-5.24288 3.49525333-9.32067555 9.32067555-11.06830222 18.05880888 0 1.74762667-1.74762667 3.49525333-1.74762666 3.49525334 21.55406222 32.62236445 37.86524445 48.93354667 21.55406222 114.17827555-3.49525333 3.49525333-3.49525333 9.32067555 0 19.80643556 3.49525333 5.24288 11.06830222 12.81592889 23.88423111 23.88423111-5.24288 45.43829333 12.81592889 81.55591111 52.4288 121.75132444 3.49525333 12.81592889 0 25.63185778 5.24288 36.11761778 3.49525333 6.99050667 12.81592889 16.31118222 30.87473777 23.88423111 9.32067555 25.63185778 23.88423111 50.68117333 37.86524445 74.56540445-5.24288 16.31118222-16.31118222 47.18592-18.05880889 66.99235555-12.81592889 5.24288-27.37948445 11.06830222-40.19541333 23.88423111l-12.81592889 12.81592889c-41.94304 18.05880889-90.87658667 36.11761778-136.31488 65.24472889 3.49525333 6.99050667 5.24288 12.81592889 11.06830222 16.31118222 1.74762667 1.74762667 1.74762667 1.74762667 3.49525334 1.74762667 12.81592889-6.99050667 27.37948445-12.81592889 41.94304-21.55406222 5.24288-3.49525333 12.81592889-6.99050667 21.55406222-6.99050667 6.99050667 0 16.31118222 1.74762667 23.88423111 3.49525334 9.32067555 1.74762667 11.06830222 3.49525333 9.32067555 16.31118222 0 1.74762667 0 3.49525333-1.74762666 5.24288-5.24288 18.05880889-9.32067555 34.36999111-16.31118222 54.17642666-1.74762667 9.32067555-5.24288 21.55406222-6.99050667 30.87473778-1.74762667 3.49525333 0 6.99050667 3.49525333 9.32067556 11.06830222 9.32067555 23.88423111 18.05880889 34.36999111 27.37948444 11.06830222-76.31303111 23.88423111-139.81013333 36.11761778-179.42300444 1.74762667-3.49525333 5.24288-6.99050667 11.06830222-9.32067556-9.32067555 63.49710222-19.80643555 132.23708445-11.06830222 203.30723556 1.74762667 3.49525333 5.24288 5.24288 11.06830222 5.24288 87.38133333-37.86524445 205.05486222-66.99235555 344.86499556-87.38133334 6.99050667-1.74762667 16.31118222-1.74762667 23.88423111-3.49525333h1.74762666v-1.74762667l32.62236445-3.49525333c0 1.74762667 0 1.74762667 6.99050667 0 5.24288 0 12.81592889-1.74762667 21.55406222-1.74762667l30.87473778-3.49525333c9.32067555-1.74762667 18.05880889-1.74762667 27.37948444-3.49525333l1.74762667-1.74762667c12.81592889-1.74762667 27.37948445-1.74762667 27.37948444-5.24288-3.49525333-5.24288-16.31118222-3.49525333-30.87473777-5.24288-1.74762667-41.94304-36.11761778-152.62606222-47.18592-195.73418667 5.24288-1.74762667 16.31118222 0 23.8842311 6.99050667l110.68302223 273.79484445c6.99050667-6.99050667 18.05880889-12.81592889 25.63185777-21.55406223 0-1.74762667 0-1.74762667-1.74762666-1.74762667-6.99050667-19.80643555-18.05880889-37.86524445-25.63185778-58.25422222-9.32067555-19.80643555-18.05880889-37.86524445-27.37948444-58.25422222-6.99050667-19.80643555-18.05880889-37.86524445-25.63185778-58.25422222-9.32067555-21.55406222-19.80643555-40.19541333-27.37948444-61.74947556-1.74762667-3.49525333 0-5.24288 3.49525333-5.24288h5.24288c23.88423111 1.74762667 48.93354667 3.49525333 71.07015111 5.24288 27.37948445 1.74762667 56.50659555 3.49525333 83.30353778 6.99050667 11.06830222 1.74762667 25.63185778 3.49525333 36.11761778 9.32067555 12.81592889 5.24288 27.37948445 11.06830222 37.86524444 21.55406223l1.74762666-1.74762667c1.74762667-5.24288 3.49525333-9.32067555 3.49525334-16.31118222-16.31118222-13.39847111-36.11761778-22.71914667-57.67168-26.2144z" fill="" p-id="7834"></path><path d="M231.21464889 402.48206222c-1.74762667 1.74762667-3.49525333 0-5.24288-1.74762667-3.49525333-6.99050667-9.32067555-12.81592889-12.81592889-21.55406222-1.74762667-3.49525333-3.49525333-6.99050667-5.24288-12.81592888 1.74762667-1.74762667 1.74762667-3.49525333 3.49525333-3.49525334 1.74762667-1.74762667 3.49525333-1.74762667 5.24288-3.49525333 3.49525333-1.74762667 5.24288 0 5.24288 3.49525333 1.74762667 6.99050667 3.49525333 16.31118222 5.24288 25.63185778 0 3.49525333 1.74762667 5.24288 3.49525334 9.32067556 2.33016889 2.91271111 2.33016889 4.66033778 0.58254222 4.66033777zM249.27345778 350.05326222c-3.49525333 0-9.32067555 1.74762667-12.81592889 1.74762667l-1.74762667-1.74762667c0-1.74762667-1.74762667-3.49525333-1.74762667-5.24288s1.74762667-1.74762667 1.74762667-3.49525333c3.49525333-1.74762667 6.99050667-1.74762667 11.06830223-1.74762667 1.74762667 0 3.49525333 0 3.49525333 1.74762667s1.74762667 3.49525333 1.74762667 5.24288c0-0.58254222-1.74762667 3.49525333-1.74762667 3.49525333zM245.77820445 206.16533333c-3.49525333 6.99050667-6.99050667 12.81592889-12.8159289 19.80643556-5.24288 5.24288-6.99050667 11.06830222-9.32067555 19.80643556-3.49525333 19.80643555-5.24288 40.19541333-5.24288 61.74947555 0 6.99050667 1.74762667 16.31118222 1.74762667 23.88423111 0 5.24288 0 9.32067555-5.24288 11.06830222-1.74762667 0-1.74762667 1.74762667-3.49525334 1.74762667-3.49525333 1.74762667-5.24288 0-6.99050666-3.49525333-5.24288-16.31118222-6.99050667-30.87473778-9.32067556-47.18592 0-6.99050667 0-16.31118222-1.74762666-23.88423112V249.856c0-11.06830222-3.49525333-21.55406222-11.06830223-30.87473778-1.74762667-3.49525333-3.49525333-5.24288-5.24288-9.32067555-1.74762667-3.49525333 0-9.32067555 3.49525333-9.32067556 9.32067555 0 19.80643555-3.49525333 29.12711112-9.32067556 11.06830222-6.99050667 23.88423111-18.05880889 34.36999111-27.37948444s23.88423111-18.05880889 36.11761777-21.55406222c5.24288-1.74762667 9.32067555-1.74762667 16.31118223-3.49525334 1.74762667 0 3.49525333 0 3.49525333 1.74762667s-1.74762667 1.74762667-1.74762666 3.49525333c-3.49525333 1.74762667-6.99050667 3.49525333-11.06830223 6.99050667-11.06830222 6.99050667-19.80643555 19.80643555-27.37948444 30.87473778-6.99050667 8.15559111-10.48576 15.72864-13.98101333 24.46677333zM594.13845333 298.78954667c0 5.24288 0 6.99050667-3.49525333 6.99050666h-11.06830222s-3.49525333 0-3.49525333-1.74762666v-6.99050667l1.74762666-1.74762667c3.49525333 0 6.99050667 0 11.06830222-1.74762666 3.49525333 1.74762667 5.24288 1.74762667 5.24288 5.24288z" fill="#FFFFFF" p-id="7835"></path><path d="M548.70016 313.35310222c-3.49525333-1.74762667-6.99050667-3.49525333-11.06830222-5.24288l-1.74762667-1.74762667 1.74762667-1.74762666c3.49525333 0 6.99050667 0 9.32067555-1.74762667 5.24288 0 9.32067555 0 16.31118222 3.49525333 1.74762667 1.74762667 3.49525333 5.24288 3.49525334 9.32067556 0 3.49525333-1.74762667 6.99050667-5.24288 5.24288-5.24288 0-9.32067555-5.82542222-12.81592889-7.57304889zM556.27320889 335.48970667c-1.74762667 0-3.49525333 1.74762667-5.24288 1.74762666-6.99050667 0-12.81592889-3.49525333-19.80643556-6.99050666-6.99050667-5.24288-16.31118222-5.24288-25.63185778-3.49525334-3.49525333 0-5.24288 1.74762667-9.32067555 3.49525334h-3.49525333v-3.49525334c6.99050667-9.32067555 19.80643555-16.31118222 30.87473778-9.32067555 6.99050667 3.49525333 12.81592889 9.32067555 21.55406222 12.81592889 5.24288 1.16508445 6.99050667 1.16508445 11.06830222 5.24288 0-1.74762667 0 0 0 0z" fill="#F4D5B9" p-id="7836"></path><path d="M456.07594667 496.85390222c-18.05880889 1.74762667-34.36999111 5.24288-52.4288 9.32067556-6.99050667 1.74762667-12.81592889 3.49525333-21.55406222 5.24288h-3.49525334c-3.49525333-1.74762667-6.99050667-1.74762667-9.32067556-3.49525333-1.74762667-1.74762667-1.74762667-3.49525333 0-5.24288 9.32067555-3.49525333 18.05880889-11.06830222 23.88423112-21.55406223 5.24288-11.06830222 19.80643555-11.06830222 27.37948444-6.99050667 11.06830222 3.49525333 23.88423111 5.24288 36.11761778 3.49525334 5.24288 0 9.32067555-3.49525333 12.81592889-9.32067556 1.74762667-3.49525333 5.24288-5.24288 9.32067555-6.99050666 5.24288-3.49525333 11.06830222-6.99050667 18.05880889-11.06830222 6.99050667-5.24288 9.32067555-5.24288 18.05880889 0 5.24288 5.24288 11.06830222 11.06830222 18.05880889 19.80643555 5.24288 5.24288 11.06830222 9.32067555 19.80643555 11.06830222 1.74762667 0 3.49525333 1.74762667 5.24288 3.49525333 0 0 0 3.49525333-1.74762666 3.49525334-1.74762667 1.74762667-5.24288 3.49525333-6.99050667 3.49525333-11.06830222 1.74762667-21.55406222 1.74762667-32.62236444 1.74762667-23.88423111 1.74762667-41.94304 1.74762667-60.58439111 3.49525333zM503.26186667 518.40796445c-1.74762667 1.74762667-5.24288 3.49525333-6.99050667 3.49525333-11.06830222 3.49525333-21.55406222 6.99050667-32.62236445 9.32067555-5.24288 0-11.06830222 1.74762667-18.05880888 3.49525334-5.24288 1.74762667-11.06830222 0-18.05880889-3.49525334-1.74762667 0-1.74762667-1.74762667-1.74762667-3.49525333 1.74762667 0 1.74762667-1.74762667 3.49525334-1.74762667 11.06830222-1.74762667 23.88423111-5.24288 36.11761777-6.99050666 11.06830222-1.74762667 23.88423111-1.74762667 36.11761778-1.74762667 0-0.58254222 0-0.58254222 1.74762667 1.16508445 0-1.74762667 0 0 0 0z" fill="#FFFFFF" p-id="7837"></path><path d="M394.32647111 620.35285333c-12.81592889 1.74762667-23.88423111-3.49525333-34.36999111-9.32067555-18.05880889-11.06830222-29.12711111-25.63185778-37.86524445-45.43829333-3.49525333-6.99050667-6.99050667-16.31118222-11.06830222-25.63185778-1.74762667-3.49525333-1.74762667-6.99050667-1.74762666-12.81592889 0-6.99050667 1.74762667-18.05880889 9.32067555-23.88423111 1.74762667-1.74762667 5.24288-3.49525333 9.32067556-3.49525334 3.49525333 0 5.24288 1.74762667 6.99050667 5.24288 1.74762667 5.24288 3.49525333 12.81592889 3.49525333 19.80643556 3.49525333 18.05880889 9.32067555 34.36999111 19.80643555 50.68117333 1.74762667 3.49525333 5.24288 6.99050667 6.99050667 9.32067556 3.49525333 3.49525333 5.24288 1.74762667 6.99050667-1.74762667 1.74762667-3.49525333 1.74762667-6.99050667 3.49525333-9.32067556 0-1.74762667 1.74762667-1.74762667 3.49525333-3.49525333l3.49525334 3.49525333c3.49525333 9.32067555 6.99050667 19.80643555 12.81592888 29.12711112 1.74762667 1.74762667 1.74762667 3.49525333 3.49525334 6.99050666 2.91271111 6.99050667 1.16508445 10.48576-4.66033778 10.48576zM400.15189333 446.17272889c1.74762667 1.74762667 1.74762667 3.49525333 0 5.24288s-5.24288 1.74762667-6.99050666 0c-5.82542222-3.49525333-9.32067555-9.32067555-9.32067556-18.05880889 1.74762667-3.49525333 1.74762667-5.24288 3.49525334-9.32067555s5.24288-3.49525333 9.32067555-3.49525334c1.74762667 0 1.74762667 1.74762667 1.74762667 3.49525334-1.74762667 9.32067555-1.74762667 16.31118222 1.74762666 22.13660444zM351.21834667 342.48021333c0 1.74762667-3.49525333 1.74762667-6.99050667 1.74762667-11.06830222 0-19.80643555 3.49525333-29.12711111 9.32067555-5.24288 1.74762667-9.32067555 5.24288-16.31118222 6.99050667-1.74762667 1.74762667-5.24288 1.74762667-6.99050667 1.74762667s-3.49525333-1.74762667-1.74762667-3.49525334l1.74762667-1.74762666c9.32067555-6.99050667 19.80643555-12.81592889 29.12711111-21.55406222 6.99050667-3.49525333 16.31118222-5.24288 23.88423111-1.74762667 2.33016889 3.49525333 6.40796445 5.24288 6.40796445 8.73813333zM262.08938667 357.04376889c0-5.24288 5.24288-12.81592889 11.06830222-16.31118222 5.24288-1.74762667 11.06830222-1.74762667 16.31118222-3.49525334 1.74762667 0 3.49525333 0 5.24288 1.74762667 0 1.74762667-1.74762667 3.49525333-1.74762666 3.49525333-5.24288 5.24288-12.81592889 11.06830222-21.55406223 18.05880889 0 1.74762667-1.74762667 1.74762667-1.74762667 1.74762667-5.82542222 0-7.57304889-1.74762667-7.57304888-5.24288z" fill="#F4D5B9" p-id="7838"></path><path d="M280.14819555 438.59968v-1.74762667-1.74762666h1.74762667c3.49525333 1.74762667 6.99050667 3.49525333 11.06830223 5.24288 3.49525333 1.74762667 5.24288 0 6.99050666-3.49525334 1.74762667-5.24288 1.74762667-6.99050667-1.74762666-9.32067555-6.99050667-3.49525333-12.81592889-5.24288-19.80643556-11.06830223-3.49525333-3.49525333-6.99050667-9.32067555-11.06830222-12.81592888-1.74762667-1.74762667-1.74762667-5.24288 1.74762666-6.99050667l1.74762667-1.74762667c3.49525333-3.49525333 6.99050667-3.49525333 11.06830222 0 1.74762667 1.74762667 3.49525333 1.74762667 5.24288 3.49525334 3.49525333 1.74762667 6.99050667 0 11.06830223-3.49525334 6.99050667-11.06830222 18.05880889-19.80643555 32.62236444-18.05880888h11.06830222c9.32067555 0 18.05880889-1.74762667 25.63185778-5.24288h3.49525333v3.49525333c-6.99050667 6.99050667-3.49525333 9.32067555 3.49525333 16.31118222 1.74762667 1.74762667 3.49525333 1.74762667 5.24288 0l5.24288-5.24288c0 5.24288 0 11.06830222-1.74762666 18.05880889-3.49525333 9.32067555-9.32067555 18.05880889-18.05880889 23.88423111-6.99050667 6.99050667-11.06830222 16.31118222-12.81592889 27.37948445 0 1.74762667-1.74762667 3.49525333-3.49525333 5.24288-9.32067555 3.49525333-18.05880889 11.06830222-25.63185778 18.05880888s-18.05880889 6.99050667-27.37948445 0c-1.16508445-19.80643555-10.48576-29.12711111-15.72864-40.19541333z" fill="#FFF1E4" p-id="7839"></path><path d="M465.39662222 786.95992889c-5.24288 12.81592889-9.32067555 27.37948445-16.31118222 40.19541333-1.74762667 5.24288-5.24288 11.06830222-6.99050667 18.05880889-3.49525333 5.24288-6.99050667 6.99050667-16.31118222 9.32067556-12.81592889 1.74762667-27.37948445 3.49525333-40.19541333 6.99050666-6.99050667 1.74762667-16.31118222 1.74762667-23.88423111 3.49525334-18.05880889 3.49525333-34.36999111 5.24288-52.4288 9.32067555-9.32067555 1.74762667-16.31118222 0-18.05880889-9.32067555 0-1.74762667-1.74762667-5.24288-1.74762667-6.99050667-1.74762667-6.99050667-1.74762667-12.81592889-3.49525333-21.55406222-3.49525333-27.37948445-3.49525333-54.17642667-3.49525333-79.80828445 0-6.99050667 1.74762667-18.05880889 3.49525333-25.63185778 0-3.49525333 6.99050667-6.99050667 11.06830222-6.99050666 1.74762667 0 3.49525333 1.74762667 3.49525333 3.49525333 6.99050667 16.31118222 16.31118222 30.87473778 25.63185778 45.43829333 12.81592889 25.63185778 32.62236445 47.18592 54.17642667 63.49710223 1.74762667 1.74762667 3.49525333 3.49525333 6.99050667 3.49525333 3.49525333 1.74762667 3.49525333 0 3.49525333-3.49525333 0-1.74762667-1.74762667-5.24288-3.49525333-6.99050667-9.32067555-12.81592889-21.55406222-27.37948445-30.87473778-40.19541333-9.32067555-11.06830222-16.31118222-27.37948445-21.55406222-40.19541333-3.49525333-11.06830222-9.32067555-23.88423111-12.8159289-36.11761778-3.49525333-12.81592889-5.24288-27.37948445-3.49525333-40.19541334 0-5.24288 1.74762667-9.32067555 1.74762667-16.31118222 1.74762667-3.49525333 3.49525333-5.24288 6.99050666-1.74762666 11.06830222 11.06830222 23.88423111 19.80643555 36.11761778 27.37948444 12.81592889 6.99050667 29.12711111 16.31118222 45.43829334 21.55406222h1.74762666l3.49525334 3.49525334c-1.74762667 0-1.74762667 1.74762667-3.49525334 1.74762666-5.24288 1.74762667-11.06830222 1.74762667-18.05880888 3.49525334-3.49525333 0-5.24288 1.74762667-9.32067556 3.49525333-3.49525333 1.74762667-6.99050667 5.24288-5.24288 9.32067555 1.74762667 11.06830222 3.49525333 23.88423111 3.49525333 34.36999112 0 6.99050667 5.24288 11.06830222 12.81592889 11.06830222 6.99050667 0 12.81592889-1.74762667 21.55406222-1.74762667 3.49525333 0 9.32067555-1.74762667 12.81592889-1.74762667s5.24288 0 3.49525333 3.49525334c-3.49525333 6.99050667-9.32067555 18.05880889-12.81592888 25.63185778-1.74762667 3.49525333-3.49525333 9.32067555-3.49525334 16.31118222v5.24288c5.24288-1.74762667 6.99050667-1.74762667 6.99050667-3.49525334 3.49525333-5.24288 6.99050667-12.81592889 11.06830222-19.80643555 6.99050667-11.06830222 18.05880889-23.88423111 30.87473778-32.62236445 1.74762667-1.74762667 3.49525333-1.74762667 5.24288-3.49525333 1.74762667 0 3.49525333-1.74762667 3.49525333 0 0 0 1.74762667 1.74762667 1.74762667 3.49525333-8.15559111 11.06830222-8.15559111 18.05880889-9.90321778 25.04931556z" fill="#FFFFFF" p-id="7840"></path><path d="M491.02848 845.21415111c-3.49525333 0-6.99050667 1.74762667-11.06830222 1.74762667 0 0-1.74762667 0-1.74762667-1.74762667v-1.74762666c3.49525333-6.99050667 5.24288-16.31118222 9.32067556-21.55406223 0-1.74762667 1.74762667-3.49525333 1.74762666-5.24288l1.74762667 1.74762667c1.74762667 6.99050667 3.49525333 12.81592889 3.49525333 21.55406222 1.74762667 3.49525333 1.74762667 5.24288-3.49525333 5.24288z" fill="" p-id="7841"></path><path d="M498.01898667 712.97706667c0 1.74762667 0 3.49525333-3.49525334 3.49525333-5.24288 0-6.99050667-1.74762667-11.06830222-5.24288-9.32067555-6.99050667-19.80643555-12.81592889-29.12711111-23.88423111-9.32067555-11.06830222-19.80643555-19.80643555-23.88423111-32.62236444-1.74762667-9.32067555-1.74762667-19.80643555 0-29.12711112 1.74762667-12.81592889 1.74762667-29.12711111-1.74762667-41.94304v-1.74762666h1.74762667c3.49525333 1.74762667 5.24288 5.24288 6.99050666 6.99050666 1.74762667 1.74762667 3.49525333 3.49525333 5.24288 6.99050667 0-1.74762667 1.74762667-3.49525333 1.74762667-3.49525333 0-5.24288-1.74762667-12.81592889-1.74762667-19.80643556 0-3.49525333-3.49525333-5.24288-9.32067555-5.24288-1.74762667 0-5.24288 0-6.99050667-1.74762666-3.49525333-1.74762667-3.49525333-3.49525333-1.74762666-6.99050667 6.99050667-5.24288 18.05880889-9.32067555 27.37948444-9.32067556 12.81592889 0 27.37948445 0 37.86524444-3.49525333 9.32067555-3.49525333 19.80643555-6.99050667 29.12711112-11.06830222 9.32067555-3.49525333 21.55406222 1.74762667 23.88423111 11.06830222 1.74762667 5.24288 1.74762667 12.81592889 3.49525333 19.80643556 0 1.74762667 1.74762667 1.74762667 1.74762667 3.49525333 1.74762667 1.74762667 3.49525333 1.74762667 5.24288 0 3.49525333-3.49525333 5.24288-9.32067555 5.24288-16.31118223v-12.81592888c0-5.24288 1.74762667-9.32067555 5.24288-12.81592889 5.24288-6.99050667 9.32067555-16.31118222 6.99050667-25.63185778 0-9.32067555-1.74762667-19.80643555-3.49525334-27.37948445 0-5.24288-5.24288-11.06830222-11.06830222-11.06830222-12.81592889-3.49525333-21.55406222-11.06830222-30.87473778-21.55406222-6.99050667-6.99050667-12.81592889-16.31118222-25.63185778-19.80643556-1.74762667-1.16508445-6.99050667-2.91271111-11.06830222-2.9127111-3.49525333 0-5.24288 1.74762667-3.49525333 5.24288 0 1.74762667 1.74762667 3.49525333 1.74762667 5.24288 1.74762667 5.24288 1.74762667 9.32067555-3.49525334 12.81592888-6.99050667 5.24288-18.05880889 12.81592889-27.37948444 16.31118222-9.32067555 1.74762667-19.80643555 1.74762667-27.37948445-1.74762666-9.32067555-3.49525333-18.05880889-9.32067555-23.88423111-18.05880889-1.74762667-3.49525333-3.49525333-6.99050667-3.49525333-12.81592889 1.74762667-6.99050667 1.74762667-12.81592889 3.49525333-21.55406222v-25.63185778c0-9.32067555-1.74762667-18.05880889 1.74762667-25.63185778 1.74762667-3.49525333 3.49525333-5.24288 6.99050667-6.99050666s6.99050667-1.74762667 11.06830222-3.49525334c5.24288-1.74762667 11.06830222 3.49525333 16.31118222 9.32067556 1.74762667 5.24288 5.24288 11.06830222 9.32067556 16.31118222 5.24288 6.99050667 6.99050667 5.24288 16.31118222 0 3.49525333-3.49525333 3.49525333-5.24288 0-9.32067556-1.74762667-1.74762667-3.49525333-3.49525333-1.74762667-5.24288 1.74762667-1.74762667 3.49525333 0 5.24288 0 16.31118222 5.24288 30.87473778 6.99050667 48.93354667 1.74762667 5.24288-1.74762667 11.06830222-3.49525333 16.31118222-5.24288 3.49525333-1.74762667 5.24288 0 9.32067556 1.74762667l1.74762666 1.74762666c1.74762667 1.74762667 5.24288 1.74762667 9.32067556 1.74762667h6.99050666c5.24288 0 5.24288 1.74762667 5.24288 5.24288 0 9.32067555-5.24288 18.05880889-11.06830222 23.88423111-3.49525333 3.49525333-3.49525333 5.24288-1.74762666 11.06830222 1.74762667 1.74762667 3.49525333 1.74762667 5.24288 1.74762667 11.06830222-5.24288 19.80643555-18.05880889 21.55406222-29.12711111 3.49525333-12.81592889 3.49525333-27.37948445 5.24288-40.19541333 0-5.24288 1.74762667-9.32067555 6.99050666-12.81592889 3.49525333-1.74762667 6.99050667-5.24288 11.06830222-6.99050667 3.49525333-1.74762667 6.99050667-1.74762667 6.99050667 3.49525333 1.74762667 9.32067555 3.49525333 19.80643555 5.24288 29.12711112 0 3.49525333 1.74762667 5.24288 1.74762667 9.32067555 0 1.74762667 1.74762667 1.74762667 3.49525333 1.74762667 5.24288-3.49525333 9.32067555-11.06830222 5.24288-18.05880889 0-1.74762667-1.74762667-3.49525333-3.49525333-5.24288-1.74762667-3.49525333-3.49525333-6.99050667-1.74762667-9.32067555 1.74762667-3.49525333 5.24288-5.24288 9.32067556-6.99050667 3.49525333 0 6.99050667 1.74762667 9.32067555 5.24288 1.74762667 3.49525333 3.49525333 9.32067555 3.49525334 12.81592889v29.12711111c0 5.24288-1.74762667 11.06830222-3.49525334 18.05880889-1.74762667 9.32067555-5.24288 21.55406222-9.32067555 30.87473778-3.49525333 11.06830222-5.24288 23.88423111-9.32067556 34.3699911 0 1.74762667 0 5.24288-3.49525333 5.24288s-3.49525333-3.49525333-5.24288-3.49525333c0 0 0-1.74762667-1.74762667-3.49525333-1.74762667 3.49525333-1.74762667 5.24288-3.49525333 6.99050666-1.74762667 3.49525333-3.49525333 6.99050667-5.24288 11.06830223 3.49525333 3.49525333 1.74762667 6.99050667 3.49525333 11.06830222 1.74762667 23.88423111 3.49525333 48.93354667 0 71.07015111-3.49525333 27.37948445-16.31118222 50.68117333-32.62236444 68.73998222-11.06830222 11.06830222-23.88423111 23.88423111-36.11761778 32.62236445-6.99050667 5.24288-11.06830222 5.24288-19.80643555 0-1.74762667-1.74762667-3.49525333-1.74762667-3.49525334-1.74762667 0 1.74762667-1.74762667 3.49525333 0 5.24288 1.74762667 5.24288 3.49525333 12.81592889 1.74762667 19.80643556-1.74762667 6.99050667-5.24288 11.06830222-6.99050667 16.31118222-6.40796445 8.73813333-11.65084445 19.80643555-11.65084444 30.87473778z" fill="#FFF1E4" p-id="7842"></path><path d="M701.32622222 732.78350222c1.74762667 12.81592889 3.49525333 27.37948445 6.99050667 37.86524445 1.74762667 9.32067555 1.74762667 19.80643555 3.49525333 29.12711111 0 3.49525333 1.74762667 6.99050667 1.74762667 11.06830222 0 5.24288-1.74762667 6.99050667-6.99050667 6.99050667-6.99050667 1.74762667-18.05880889 1.74762667-25.63185777 3.49525333-21.55406222 1.74762667-41.94304 3.49525333-63.49710223 5.24288-16.31118222 1.74762667-29.12711111 3.49525333-45.43829333 5.24288-9.32067555 1.74762667-19.80643555 1.74762667-29.12711111 3.49525333-3.49525333 0-5.24288 0-5.24288-3.49525333-3.49525333-21.55406222-9.32067555-40.19541333-19.80643556-58.25422222-1.74762667-5.24288-5.24288-9.32067555-9.32067555-16.31118223v-3.49525333h3.49525333c11.06830222 5.24288 23.88423111 9.32067555 32.62236445 18.05880889 12.81592889 6.99050667 25.63185778 18.05880889 37.86524444 27.37948444H587.73048889v-3.49525333c-1.74762667-3.49525333-3.49525333-5.24288-5.24288-9.32067555-9.32067555-9.32067555-21.55406222-19.80643555-30.87473778-30.87473778-1.74762667-1.74762667-1.74762667-3.49525333-5.24288-5.24288 3.49525333 0 5.24288-1.74762667 6.99050667-1.74762667h19.80643555c9.32067555 0 12.81592889-5.24288 12.81592889-16.31118222-1.74762667-11.06830222-1.74762667-21.55406222-3.49525333-32.62236445 0-6.99050667-3.49525333-11.06830222-11.06830222-11.06830222-11.06830222 0-23.88423111 1.74762667-34.36999112 5.24288h-3.49525333v-1.16508444c3.49525333-1.74762667 5.24288-5.24288 9.32067556-6.99050667 19.80643555-12.81592889 36.11761778-30.87473778 50.68117333-50.68117333 9.32067555-11.06830222 18.05880889-25.63185778 23.88423111-40.19541334 1.74762667-1.74762667 1.74762667-5.24288 3.49525333-6.99050666 1.74762667-3.49525333 3.49525333-3.49525333 5.24288-1.74762667 3.49525333 3.49525333 6.99050667 6.99050667 6.99050667 12.81592889 1.74762667 9.32067555 3.49525333 19.80643555 5.24288 29.12711111 3.49525333 21.55406222 1.74762667 41.94304-1.74762667 61.74947556-1.74762667 18.05880889-5.24288 34.36999111-9.32067555 52.4288-1.74762667 9.32067555-5.24288 19.80643555-6.99050667 29.12711111v1.74762666c0 1.74762667 0 1.74762667 1.74762667 1.74762667s1.74762667 0 3.49525333-1.74762667c1.74762667-3.49525333 3.49525333-5.24288 5.24288-9.32067555 5.24288-12.81592889 9.32067555-27.37948445 12.81592889-40.19541333 3.49525333-16.31118222 6.99050667-32.62236445 11.06830223-50.68117334 1.74762667-11.06830222 3.49525333-21.55406222 3.49525333-32.62236444 0-6.99050667 1.74762667-16.31118222 1.74762667-23.88423111 0-3.49525333 1.74762667-3.49525333 3.49525333-1.74762667 3.49525333 1.74762667 6.99050667 5.24288 9.32067555 9.32067556 1.74762667 5.24288 3.49525333 12.81592889 5.24288 21.55406222 3.49525333 16.31118222 6.99050667 30.87473778 9.32067556 48.93354666 10.48576 12.81592889 12.23338667 23.88423111 13.98101333 38.44778667z" fill="#FFFFFF" p-id="7843"></path><path d="M696.08334222 622.10048c5.24288-1.74762667 16.31118222 0 23.88423111 6.99050667l110.68302222 273.79484444c-18.05880889 12.81592889-34.36999111 27.37948445-54.17642666 37.86524444l-29.12711111-114.17827555c12.81592889-1.74762667 27.37948445-1.74762667 27.37948444-5.24288-3.49525333-5.24288-16.31118222-3.49525333-30.87473777-5.24288-2.33016889-41.36049778-37.28270222-152.04352-47.76846223-193.98656zM690.25792 836.47601778l30.87473778-4.07779556 27.37948444 121.75132445-1.74762667 5.24288-29.1271111 14.56355555zM628.50844445 843.46652445l32.62236444-3.49525334c11.06830222 52.4288 21.55406222 103.69251555 27.37948444 145.05301334v1.74762666l-32.62236444 9.32067556c-9.32067555-54.75896889-18.05880889-107.18776889-27.37948444-152.62606222zM117.03637333 199.17482667c21.55406222 32.62236445 37.86524445 48.93354667 21.55406222 114.17827555-3.49525333 3.49525333-3.49525333 9.32067555 0 19.80643556 3.49525333 5.24288 11.06830222 12.81592889 23.88423112 23.88423111-5.24288 45.43829333 12.81592889 81.55591111 52.4288 121.75132444 3.49525333 12.81592889 0 25.63185778 5.24288 36.11761778 3.49525333 6.99050667 12.81592889 16.31118222 30.87473778 23.88423111 9.32067555 25.63185778 23.88423111 50.68117333 37.86524444 74.56540445-5.24288 16.31118222-16.31118222 47.18592-18.05880889 66.99235555-12.81592889 5.24288-27.37948445 11.06830222-40.19541333 23.88423111l-12.81592889 12.81592889c-45.43829333 18.05880889-90.87658667 36.11761778-136.31488 65.24472889-69.90506667-107.77031111-140.97521778-370.49685333 35.53507555-583.12476444zM603.45912889 848.70940445l19.80643556 156.12131555c-112.43064889 30.87473778-286.61077333 12.81592889-411.85735112-87.38133333 11.06830222-76.31303111 23.88423111-139.81013333 36.11761778-181.75317334 1.74762667-3.49525333 5.24288-6.99050667 11.06830222-9.32067555-9.32067555 63.49710222-19.80643555 132.23708445-11.06830222 203.30723555 1.74762667 3.49525333 5.24288 5.24288 11.06830222 5.24288 88.54641778-39.03032889 206.80248889-67.57489778 344.86499556-86.21624888zM479.37763555 12.17877333c76.31303111 21.55406222 143.30538667 63.49710222 174.18012445 181.75317334 19.80643555 9.32067555 12.81592889 48.93354667 5.24288 89.12896 41.94304 50.68117333 9.32067555 105.44014222-5.24288 156.12131555 1.74762667 18.05880889 1.74762667 27.37948445 1.74762667 27.37948445-3.49525333 12.81592889-9.32067555 12.81592889-16.31118222 19.80643555-1.74762667 3.49525333-3.49525333 40.19541333-6.99050667 68.73998223 6.99050667 1.74762667 19.80643555 12.81592889 29.12711111 29.1271111 36.11761778 9.32067555 66.99235555 19.80643555 79.80828444 30.87473778 78.06065778 5.24288 146.80064 12.81592889 198.06435556 25.63185778 21.55406222 3.49525333 40.19541333 12.81592889 56.50659556 25.63185778 106.60522667-379.81752889-187.57859555-674.00135111-516.1324089-654.19491556z m296.51399112 533.60867556c-9.32067555 0-18.05880889 0-27.37948445-1.74762667-6.99050667 0-12.81592889-5.24288-19.80643555-12.81592889-5.24288-6.99050667-11.06830222-18.05880889-18.05880889-25.63185778h-1.74762667c-1.74762667 9.32067555-3.49525333 18.05880889-6.99050666 25.63185778 0 3.49525333 0 5.24288 3.49525333 5.24288 1.74762667 0 1.74762667 1.74762667 1.74762667 3.49525334s-1.74762667 3.49525333-3.49525334 3.49525333H660.54826667c0-3.49525333 0-5.24288 3.49525333-6.99050667 5.24288-1.74762667 6.99050667-6.99050667 9.32067555-12.81592888 3.49525333-11.06830222 5.24288-21.55406222 9.32067556-32.62236445 1.74762667-6.99050667 3.49525333-16.31118222 5.24288-23.88423111 1.74762667-5.24288 0-6.99050667-3.49525333-9.32067556l-1.74762667-1.74762666c0-1.74762667 1.74762667-1.74762667 1.74762667-3.49525334H727.54062222c0 3.49525333 0 5.24288-3.49525333 6.99050667-1.74762667 0-3.49525333 3.49525333-5.24288 5.24288-3.49525333 9.32067555-5.24288 19.80643555-6.99050667 30.87473778 6.99050667-5.24288 12.81592889-9.32067555 19.80643556-16.31118223 5.24288-3.49525333 11.06830222-6.99050667 16.31118222-11.06830222 5.24288-3.49525333 5.24288-5.24288 0-9.32067555 0-5.24288 0-5.24288 5.24288-5.24288h43.69066667c0 3.49525333 0 5.24288-3.49525334 6.99050667-3.49525333 1.74762667-6.99050667 3.49525333-11.06830222 6.99050666-11.06830222 9.32067555-23.88423111 19.80643555-36.11761778 29.12711111 6.99050667 11.06830222 16.31118222 25.63185778 25.63185778 36.11761778 1.74762667 3.49525333 6.99050667 5.24288 11.06830222 6.99050667-1.74762667 5.82542222-1.74762667 5.82542222-6.99050666 5.82542222z m104.8576-68.73998222c-1.74762667-1.74762667-3.49525333-3.49525333-5.24288-3.49525334h-27.37948445s-1.74762667 0-1.74762667 1.74762667c-3.49525333 5.24288-5.24288 9.32067555-5.24288 14.56355555h32.62236445c-1.74762667 6.99050667-3.49525333 16.31118222-5.24288 23.88423112-9.32067555-5.24288-19.80643555-3.49525333-29.12711111-3.49525334 0 0-1.74762667 1.74762667-3.49525334 1.74762667-1.74762667 5.24288-3.49525333 12.81592889-5.24288 19.80643555-1.74762667 3.49525333 0 5.24288 3.49525334 6.99050667 1.74762667 1.74762667 1.74762667 1.74762667 1.74762666 3.49525333s-1.74762667 3.49525333-3.49525333 3.49525334h-37.86524444c0-3.49525333 1.74762667-6.99050667 1.74762667-9.32067556 5.24288-19.80643555 9.32067555-36.11761778 16.31118222-56.50659555 1.74762667-3.49525333 1.74762667-6.99050667 1.74762666-11.06830223 0-3.49525333 0-5.24288-1.74762666-6.99050666-3.49525333-1.74762667-3.49525333-3.49525333-1.74762667-6.99050667h83.30353778c-1.74762667 5.24288-3.49525333 12.81592889-3.49525333 19.80643556v2.33016889c0 1.74762667-1.74762667 1.74762667-1.74762667 3.49525333-5.82542222-1.74762667-8.15559111-1.74762667-8.15559111-3.49525333z m100.19726222 1.74762666c0 1.74762667-3.49525333 3.49525333-5.24288 1.74762667-9.32067555-9.32067555-23.88423111-9.32067555-34.36999111-5.24288-6.99050667 1.74762667-12.81592889 5.24288-19.80643556 11.06830222-11.06830222 12.81592889-6.99050667 34.36999111 9.32067556 41.94304 11.06830222 5.24288 25.63185778 3.49525333 36.11761777 1.74762667 1.74762667 0 3.49525333 0 3.49525334-1.74762667h1.74762666c-1.74762667 5.24288-1.74762667 11.06830222-3.49525333 18.05880889v1.74762667c-11.06830222 1.74762667-21.55406222 1.74762667-32.62236444 3.49525333-9.32067555 0-19.80643555-1.74762667-29.12711111-5.24288-18.05880889-6.99050667-27.37948445-23.88423111-23.88423112-41.94304 1.74762667-12.81592889 11.06830222-25.63185778 23.88423112-32.62236444 19.80643555-12.81592889 40.19541333-18.05880889 61.74947555-12.81592889 5.24288 0 11.06830222 1.74762667 18.05880889 1.74762667-2.33016889 5.24288-4.07779555 10.48576-5.82542222 18.05880888z" fill="#A00D15" p-id="7844"></path><path d="M997.25767111 467.72679111c3.49525333 0 5.24288-1.74762667 5.24288-5.24288 0-3.49525333-1.74762667-5.24288-5.24288-5.24288-3.49525333 0-5.24288 1.74762667-5.24288 5.24288-2.33016889 0-0.58254222 5.24288 5.24288 5.24288z" fill="" p-id="7845"></path><path d="M997.25767111 467.72679111c-1.74762667 0-5.24288-1.74762667-5.24288-5.24288 0-3.49525333 1.74762667-5.24288 5.24288-5.24288 3.49525333 0 5.24288 1.74762667 5.24288 5.24288 0 0-1.74762667 5.24288-5.24288 5.24288z m1.74762667-5.24288c0-5.24288 0-5.24288-5.24288-5.24288v5.24288c1.74762667-1.74762667 1.74762667-1.74762667 1.74762667-3.49525333l3.49525333 3.49525333z" fill="" p-id="7846"></path><path d="M999.00529778 462.48391111l-1.74762667-1.74762666s-1.74762667 1.74762667-1.74762666 3.49525333v-5.24288c3.49525333-2.33016889 3.49525333-2.33016889 3.49525333 3.49525333z" fill="#FFFFFF" p-id="7847"></path><path d="M392.57884445 151.98890667c-18.05880889-3.49525333-32.62236445-6.99050667-50.68117334-5.24288-37.86524445 3.49525333-58.25422222 25.63185778-68.73998222 61.74947555-5.24288 18.05880889-6.99050667 34.36999111-9.32067556 52.4288 0 6.99050667 0 18.05880889-1.74762666 23.88423111-3.49525333 5.24288-9.32067555 6.99050667-11.06830222 16.31118222-3.49525333 21.55406222 9.32067555 18.05880889 23.8842311 16.31118223 21.55406222-3.49525333 41.94304-5.24288 63.49710223-5.24288 18.05880889-1.74762667 34.36999111 1.74762667 48.93354667 11.06830222 5.24288 3.49525333 12.81592889 9.32067555 21.55406222 5.24288 6.99050667-3.49525333 18.05880889-5.24288 25.63185778-3.49525333 11.06830222 1.74762667 25.63185778-18.05880889 36.11761777-21.55406222 18.05880889-5.24288 34.36999111-6.99050667 52.4288-9.32067556 19.80643555-1.74762667 37.86524445-5.24288 58.25422223-3.49525334 6.99050667 0 19.80643555 1.74762667 27.37948444 0 3.49525333-1.74762667 0-12.81592889 0-18.05880888-3.49525333-16.31118222-16.31118222-25.63185778-23.88423111-37.86524445-5.24288-12.81592889-11.06830222-40.19541333-9.32067556-54.17642667-9.32067555-32.62236445-118.25607111-92.62421333-165.44199111-41.94304 6.40796445-6.40796445-8.15559111 11.65084445-17.47626666 13.39847112z" fill="#FFF1E4" p-id="7848"></path><path d="M613.94488889 161.30958222c-29.12711111-90.87658667-115.92590222-139.81013333-208.55011556-141.55776-23.88423111 1.74762667-45.43829333 5.24288-66.99235555 11.06830223-18.05880889 3.49525333-52.4288 12.81592889-60.00184889 30.87473777 3.49525333 1.74762667 21.55406222-1.74762667 21.55406222 3.49525333 0 6.99050667-21.55406222 12.81592889-27.37948444 18.0588089-11.06830222 6.99050667-21.55406222 18.05880889-30.87473778 27.37948444s-1.74762667 9.32067555 6.99050666 6.99050666c27.37948445-9.32067555 54.17642667-18.05880889 81.55591112-16.31118222 29.12711111 1.74762667 52.4288 12.81592889 78.06065778 27.37948445 48.93354667-50.68117333 154.37368889 11.06830222 165.4419911 41.94304 9.32067555 5.24288 16.31118222 23.88423111 21.55406223 32.62236444 9.32067555 12.81592889 16.31118222 34.36999111 27.37948444 47.18592 15.14609778-18.64135111-1.16508445-67.57489778-8.73813333-89.12896-5.24288-14.56355555 9.32067555 25.04931555 0 0z" fill="#FFFFFF" p-id="7849"></path></svg>