<?xml version="1.0" standalone="no"?><!DOCTYPE svg PUBLIC "-//W3C//DTD SVG 1.1//EN" "http://www.w3.org/Graphics/SVG/1.1/DTD/svg11.dtd"><svg t="1719469419250" class="icon" viewBox="0 0 2599 1024" version="1.1" xmlns="http://www.w3.org/2000/svg" p-id="16775" xmlns:xlink="http://www.w3.org/1999/xlink" width="507.6171875" height="200"><path d="M566.823385 394.397538H340.125538V315.234462c0-49.939692-2.126769-81.132308-6.459076-93.735385-4.253538-12.524308-14.493538-18.825846-30.72-18.825846-13.942154 0-23.473231 5.435077-28.514462 16.147692-4.962462 10.791385-7.483077 38.439385-7.483077 82.944v418.422154c0 39.069538 2.520615 64.827077 7.483077 77.193846 5.041231 12.445538 15.123692 18.589538 30.168615 18.589539 16.541538 0 27.726769-6.931692 33.634462-20.952616 5.986462-14.020923 8.900923-41.275077 8.900923-81.92V609.831385h-45.686154V477.341538h265.452308V945.230769H424.093538l-21.031384-62.464a158.326154 158.326154 0 0 1-58.446769 60.652308c-23.473231 13.390769-51.2 20.086154-83.180308 20.086154-38.045538 0-73.649231-9.216-106.889846-27.726769-33.161846-18.432-58.368-41.353846-75.618462-68.608a217.560615 217.560615 0 0 1-32.295384-85.858462C42.377846 751.222154 40.172308 706.244923 40.172308 646.301538V387.387077c0-83.259077 4.489846-143.753846 13.390769-181.484308 9.058462-37.651692 34.816-72.231385 77.351385-103.660307C173.528615 70.892308 228.430769 55.138462 296.014769 55.138462 362.338462 55.138462 417.476923 68.765538 461.272615 96.098462c43.795692 27.254154 72.388923 59.628308 85.622154 97.20123 13.312 37.494154 19.928615 91.923692 19.928616 163.367385v37.730461zM1169.959385 73.491692v582.577231c0 66.087385-2.205538 112.482462-6.459077 139.185231-4.332308 26.781538-17.092923 54.193231-38.281846 82.392615a198.419692 198.419692 0 0 1-83.731693 64.118154c-34.658462 14.493538-75.460923 21.740308-122.486154 21.740308-51.987692 0-97.988923-8.585846-137.846153-25.836308-39.857231-17.171692-69.632-39.620923-89.403077-67.268923a186.446769 186.446769 0 0 1-34.973539-87.512615c-3.623385-30.72-5.356308-95.232-5.356308-193.61477V73.491692h226.619077V727.04c0 38.124308 2.126769 62.385231 6.301539 73.019077 4.017231 10.555077 12.366769 15.832615 24.969846 15.832615 14.336 0 23.630769-5.828923 27.726769-17.486769 4.096-11.657846 6.222769-39.227077 6.222769-82.707692V73.570462h226.697847z m314.446769 0V945.230769h-226.697846V73.491692h226.697846z m90.978461 0h169.590154c109.489231 0 183.532308 4.962462 222.129231 15.044923 38.596923 10.082462 67.977846 26.545231 88.064 49.545847 20.086154 23.000615 32.689231 48.521846 37.651692 76.72123 5.041231 28.199385 7.561846 83.495385 7.561846 166.124308v305.309538c0 78.217846-3.702154 130.599385-11.027692 156.987077-7.404308 26.387692-20.164923 47.025231-38.518154 61.912616-18.274462 14.887385-40.96 25.284923-67.820307 31.192615-26.939077 5.907692-67.505231 8.900923-121.698462 8.900923H1575.384615V73.491692z m226.697847 149.110154v573.44c32.689231 0 52.775385-6.537846 60.33723-19.692308 7.483077-12.996923 11.264-48.679385 11.264-106.811076V330.830769c0-39.463385-1.260308-64.748308-3.780923-75.933538a35.997538 35.997538 0 0 0-17.171692-24.418462c-8.979692-5.277538-25.915077-7.876923-50.648615-7.876923z m382.818461-149.110154h378.092308v174.395077h-151.394462v165.415385h141.627077v165.809231h-141.627077v191.645538h166.439385V945.230769h-393.058462V73.491692z" fill="#89C2F8" p-id="16776"></path></svg>